<svg width="24" height="19" viewBox="0 0 24 19" fill="none" xmlns="http://www.w3.org/2000/svg">
<path d="M11.9999 0.496826C8.62178 0.496826 5.63115 0.840576 3.8124 1.10933C2.3249 1.32808 1.1374 2.47808 0.865527 3.9562C0.634278 5.24683 0.399902 7.1312 0.399902 9.49683C0.399902 11.8625 0.634278 13.7468 0.865527 15.0375C1.1374 16.5156 2.3249 17.6593 3.8124 17.8843C5.6374 18.1531 8.64053 18.4968 11.9999 18.4968C15.3593 18.4968 18.3562 18.1531 20.1812 17.8843H20.1874C21.6749 17.6656 22.8624 16.5156 23.1343 15.0375C23.3655 13.7406 23.5999 11.8562 23.5999 9.49683C23.5999 7.1312 23.3655 5.24683 23.1249 3.9562C22.8624 2.47808 21.6749 1.32808 20.1874 1.10933C18.3687 0.840576 15.378 0.496826 11.9999 0.496826ZM11.9999 2.13433C15.2624 2.13433 18.1812 2.46558 19.9405 2.72808C20.7187 2.8437 21.3468 3.4437 21.4937 4.2437C21.7155 5.44995 21.9405 7.24058 21.9405 9.49683C21.9405 11.7531 21.7155 13.5437 21.503 14.7437C21.353 15.55 20.7249 16.15 19.9405 16.2656C18.1687 16.5218 15.2437 16.8593 11.9999 16.8593C8.75615 16.8593 5.8249 16.5218 4.05928 16.2656C3.28115 16.15 2.64678 15.55 2.49678 14.7437C2.28428 13.5375 2.05928 11.7531 2.05928 9.49683C2.05928 7.23433 2.28428 5.44995 2.49678 4.2437C2.64678 3.4437 3.2749 2.8437 4.05303 2.73433H4.05928C5.81865 2.47183 8.7374 2.13433 11.9999 2.13433ZM8.6874 5.4062V13.5875L16.9718 9.49683L8.6874 5.4062Z" fill="#F2F2F2"/>
</svg>
